<svg xmlns="http://www.w3.org/2000/svg" viewBox="0 0 299.06 215.82"><g id="Ebene_2" data-name="Ebene 2"><g id="Ebene_1-2" data-name="Ebene 1"><path d="M290.92,4a20.16,20.16,0,0,0-28.2,4.2L181.26,117.72a3.34,3.34,0,0,0-.65,2,3.3,3.3,0,0,0-.68,1.55c-1,6-4.15,26-5.61,35.43a4.7,4.7,0,0,0,.1,1.76,9.13,9.13,0,0,1-9.75-3.58c-1.53-2.16-3.78-4.64-7.67-4.64-4.71,0-7,3.56-8.84,6.42-1.73,2.67-2.89,4.31-5,4.31s-3.26-1.64-5-4.31c-1.84-2.86-4.14-6.42-8.85-6.42s-7,3.56-8.84,6.42c-1.73,2.67-2.89,4.31-5,4.31s-3.26-1.64-5-4.31c-1.85-2.86-4.14-6.42-8.85-6.42a2.3,2.3,0,1,0,0,4.6c2.1,0,3.26,1.64,5,4.31,1.84,2.86,4.14,6.42,8.85,6.42s7-3.56,8.84-6.42c1.72-2.67,2.89-4.31,5-4.31s3.26,1.64,5,4.31c1.85,2.86,4.14,6.42,8.85,6.42s7-3.56,8.85-6.42c1.72-2.67,2.89-4.31,5-4.31,1.47,0,2.53.73,3.91,2.69A13.7,13.7,0,0,0,178,162a5,5,0,0,0,.94.14,4.71,4.71,0,0,0,2.39-.66L211,144a12.67,12.67,0,0,1,2.67-2.26L295.13,32.17a3.53,3.53,0,0,1,.21-.32,2.4,2.4,0,0,0,.92-.79,2.21,2.21,0,0,0,.34-1.24A20.18,20.18,0,0,0,290.92,4Zm-14.3.81a15.56,15.56,0,0,1,16.61,21.5l-25.43-17A15.47,15.47,0,0,1,276.62,4.77Zm-90.93,114.7L264.92,12.9l11,7.33-79,107.51Zm-6.78,38.05a.09.09,0,0,1,0-.1c1.33-8.55,4.07-25.78,5.29-33.38l6.58,4.88L207,141ZM210.72,138l-6.15-4.55-4-3,79.16-107.7,11.13,7.43Z"/><path d="M20.88,139.74H.58L11.74,87.25H32c10.73,0,16.78,7.48,16.78,17.35C48.82,124.4,36.51,139.74,20.88,139.74Zm8.71-46.59H17.28L8.57,133.83H21c12.53,0,21-12.16,21-28.65C41.91,97.69,37.3,93.15,29.59,93.15Z"/><path d="M75.53,107.26c-7.49,0-12.39,4.4-14.19,12.89l-4.17,19.59H51.12l8-37.73h5.47l-1.22,5.9c4.46-5.11,7.7-7,11.88-7a14,14,0,0,1,2.3.21l-1.29,6.12Z"/><path d="M104.26,140.39c-3.46,0-5.69-.79-5.69-3.75l.07-1.08c-5.54,4.61-9.72,5.26-14.4,5.26-6.48,0-10.44-3.17-10.44-8.93a11.69,11.69,0,0,1,5.83-10.08c3.53-2.23,6.55-2.88,16.2-3.82,5.12-.43,6.77-1.29,7.28-4.25l.21-1.29c.07-.58.14-1.08.14-1.37,0-2.66-3.31-4.61-7.63-4.61-5.33,0-8.42,2.09-9.86,6.7h-6c1.37-8,7.49-12.24,17.5-12.24,7.56,0,12.53,3.24,12.53,8.13a9.16,9.16,0,0,1-.44,2.67l-4.39,20.66a2.32,2.32,0,0,0-.07.72c0,1.44.86,2.09,2.74,2.09a4.92,4.92,0,0,0,1.22-.14l-.94,4.68C105.19,140.24,105.27,140.39,104.26,140.39ZM91,123.25c-7.63,1.08-10.88,3.38-10.88,7.92,0,3,2.38,4.46,6.49,4.46,6.33,0,12.67-3.81,13.6-8.28l1.3-6.19C98.35,122.24,97.78,122.31,91,123.25Z"/><path d="M148,139.74h-7.7v-30.1l-14,30.1h-6.91L116.5,102h7.92v29.38L138,102h8.35v29.38L160.49,102H167Z"/><path d="M13.68,215.82C5.62,215.82,0,210.63,0,202.64c0-14.26,8.28-26.71,21.82-26.71,8.64,0,13.82,5.83,13.82,13.46C35.64,204.37,26.79,215.82,13.68,215.82Zm7.2-34.35c-8.5,0-14.54,9.29-14.54,19.73,0,5.76,3.24,9.07,8.35,9.07,8.57,0,14.62-8.78,14.62-19.51C29.31,184.93,26.21,181.47,20.88,181.47Z"/><path d="M69.48,214.74H63.43l5.33-25.13a22.42,22.42,0,0,0,.43-2.67c0-3.31-2.66-5.83-6.26-5.83-6.48,0-11.59,4.9-13.25,12.82l-4.39,20.81h-6l8-37.73h5.48l-.94,4.68a19,19,0,0,1,14-5.76c6,0,9.79,3.53,9.79,9a11.52,11.52,0,0,1-.29,2.73Z"/><path d="M143.43,214.74l5.18-24.55c.65-2.45.65-2.45.65-3.53,0-3.46-2.09-5.55-5.47-5.55-5.26,0-10.16,4.32-11.31,9.94l-5,23.69h-6l5.55-26a12.34,12.34,0,0,0,.29-2.66c0-3-2.38-5-5.91-5-4.82,0-9.72,4.47-10.87,9.94l-5,23.69h-6l8-37.73h5.48l-.94,4.68c4.61-4.32,7.92-5.76,12.82-5.76s7.56,1.94,8.71,6c4.25-4.1,8.35-6,13-6,6.34,0,9.15,4.25,9.15,8a25.37,25.37,0,0,1-.43,4l-5.69,26.86Z"/><path d="M167,197.6a9,9,0,0,0-.36,3.31c0,6.12,3.31,9.36,9,9.36,4.82,0,8.64-2.59,11.09-7h6c-2.23,7.78-9.51,12.53-18.15,12.53s-14.33-6.34-14.33-13.83a34.83,34.83,0,0,1,6-18.29,20,20,0,0,1,15.91-7.77c7.78,0,13.76,5.4,13.76,12.31a50.68,50.68,0,0,1-1,8.43l-.15.93Zm22.61-7.27c0-5.4-3.24-8.86-8.35-8.86-5.84,0-11.16,4.61-13,10.95h21.17C189.58,191.55,189.65,191.05,189.65,190.33Z"/><path d="M207.29,214.74h-6l1.58-7.42h6.05Zm1-12.1h-2.88l1.65-15.19,5.33-25.2h6l-5.33,25.2Z"/></g></g></svg>