<svg xmlns="http://www.w3.org/2000/svg" viewBox="0 0 354.06 181.6"><g id="Ebene_2" data-name="Ebene 2"><g id="Ebene_1-2" data-name="Ebene 1"><path d="M0,0H6.08V24L29.85,0h7.63L18,19.31l21.14,29H32L13.84,23.43,6.08,31.2V48.28H0Z"/><path d="M42.67,32.68V0h6.08V32.08c0,8.23,4.66,11.74,12.63,11.74,7.63,0,12.22-3.51,12.22-11.74V0h6.08V32.68C79.68,44.36,71.51,49,61.18,49,50.64,49,42.67,44.36,42.67,32.68Z"/><path d="M87.91,0H94V42.68h25.32v5.6H87.91Z"/><path d="M115.53,0h38.22V5.33H137.68v43H131.6V5.33H115.53Z"/><path d="M159,32.68V0H165V32.08c0,8.23,4.66,11.74,12.63,11.74,7.63,0,12.22-3.51,12.22-11.74V0H196V32.68C196,44.36,187.78,49,177.45,49,166.91,49,159,44.36,159,32.68Z"/><path d="M204.18,0h22.56C235.25,0,241,5.33,241,13.23c0,5.88-2.57,10.07-8.38,12v.2c4.93,1.75,6.49,5.13,7,12.29.54,7.77,1.35,9.72,2.23,10.33v.27h-6.55c-1-.88-1.22-2.7-1.76-10.8-.47-7.09-3.31-9.59-9.79-9.59H210.26V48.28h-6.08Zm6.08,23h14.32c6.75,0,10.13-3.38,10.13-8.85,0-5.87-2.7-8.84-9.8-8.84H210.26Z"/><path d="M.37,66.49H6.45v24l23.77-24h7.63L18.33,85.8l21.14,29H32.38L14.21,89.92,6.45,97.69v17.08H.37Z"/><path d="M44.23,68.14l5.86-1.6,12.67,46.59-5.86,1.59Z"/><path d="M66.76,90.6c0-14.45,9-25.19,23.64-25.19S114,76.15,114,90.6s-9,25.19-23.63,25.19S66.76,105.05,66.76,90.6Zm40.76,4.45c1.73-13.23-4.11-24-16.42-24.36-8.66-.28-16.69,6.8-17.82,15.39-1.75,13.28,4.09,24,16.42,24.36C98.36,110.71,106.4,103.65,107.52,95.05Z"/><path d="M158.73,82.83h-5.95C152,74.66,147,70.41,137.86,70.41c-6.69,0-11.48,3-11.48,9,0,6.61,5.81,8.17,14.45,10.06s15.8,4.32,15.8,13.43c0,8-6.62,12.77-16.41,12.77-12.08,0-17.08-6.15-18.3-15.06h5.74c.88,6.89,5.34,10.33,12.43,10.33,6.55,0,10.87-2.77,10.87-7.77,0-5.47-5.4-7.09-12.63-8.5-9.38-1.89-18-4.19-18-15.06,0-9,7.36-14.12,17.76-14.12C151.7,65.54,158.18,73.11,158.73,82.83Z"/><path d="M168.07,66.49h6.08v24l23.77-24h7.63L186,85.8l21.14,29h-7.09L181.91,89.92l-7.76,7.77v17.08h-6.08Z"/><path d="M32.48,181.6,15.26,156.54l-8,8V181.6H1.06V132.75H7.29v24.72l24.32-24.72h8l-19.9,19.9,20.1,28.95Z"/><path d="M77.25,181.6l-5-14.68H53.39L48.23,181.6H41.6L59,132.75h8L84.21,181.6ZM63,139.45l-8,22.25H70.48Z"/><path d="M90.51,181.6V132.75h6.23V176.1h24.13v5.5Z"/><path d="M128.44,181.6V132.75h33.84v5.49H134.67v15.62h26.6v5.49h-26.6V176.1h28.82v5.5Z"/><path d="M203.36,181.6,178.09,142v39.6H172.2V132.75H179l25.53,39.94V132.75h5.89V181.6Z"/><path d="M240.28,181.6H221.45V132.75h18.83c12.39,0,19.9,9.25,19.9,24.39S252.61,181.6,240.28,181.6Zm-1.08-43.36H227.68V176.1H239.2c9.65,0,14.75-6.56,14.75-18.89S248.85,138.24,239.2,138.24Z"/><path d="M269.89,181.6V132.75h33.84v5.49h-27.6v15.62h26.6v5.49h-26.6V176.1h28.81v5.5Z"/><path d="M346.49,181.6a19.79,19.79,0,0,1-1.41-8l.07-4.35c.06-6-2.55-8.71-8-8.71H321v21h-6.23V132.75H337.3c9.59,0,14.88,4.62,14.88,13.06,0,5.57-2.21,9-7.7,11.66,5.29,2.28,6.5,4.69,6.63,12.74.07,6.5.6,8.24,2.95,9.85v1.54ZM336.1,138.24H321v16.82H336.1c6.63,0,9.58-2.61,9.58-8.38C345.68,141.19,343.07,138.24,336.1,138.24Z"/></g></g></svg>