<svg xmlns="http://www.w3.org/2000/svg" viewBox="0 0 247.95 147.32"><g id="Ebene_2" data-name="Ebene 2"><g id="Ebene_1-2" data-name="Ebene 1"><path d="M0,0H4.9V19.32L24.05,0H30.2L14.48,15.56l17,23.35H25.79l-14.63-20L4.9,25.14V38.91H0Z"/><path d="M34.39,26.34V0h4.9V25.85c0,6.64,3.75,9.47,10.17,9.47,6.15,0,9.85-2.83,9.85-9.47V0h4.9V26.34c0,9.41-6.58,13.17-14.91,13.17C40.81,39.51,34.39,35.75,34.39,26.34Z"/><path d="M70.85,0h4.89V34.39H96.15v4.52H70.85Z"/><path d="M93.1,0h30.8V4.3H111V38.91h-4.9V4.3h-13Z"/><path d="M128.09,26.34V0H133V25.85c0,6.64,3.75,9.47,10.17,9.47,6.15,0,9.85-2.83,9.85-9.47V0h4.9V26.34c0,9.41-6.59,13.17-14.91,13.17C134.51,39.51,128.09,35.75,128.09,26.34Z"/><path d="M164.54,0h18.18c6.86,0,11.48,4.3,11.48,10.67,0,4.73-2.07,8.1-6.75,9.63v.16c4,1.41,5.23,4.14,5.61,9.9.43,6.26,1.09,7.84,1.79,8.33v.22h-5.27c-.82-.71-1-2.18-1.42-8.71-.38-5.71-2.67-7.73-7.89-7.73H169.44V38.91h-4.9Zm4.9,18.5H181c5.44,0,8.16-2.72,8.16-7.13,0-4.73-2.18-7.13-7.89-7.13H169.44Z"/><path d="M.3,53.58H5.2V72.9L24.35,53.58H30.5L14.78,69.15l17,23.34H26.09l-14.63-20L5.2,78.72V92.49H.3Z"/><path d="M35.64,54.91l4.73-1.29L50.58,91.17l-4.73,1.28Z"/><path d="M53.8,73c0-11.65,7.29-20.3,19-20.3S91.9,61.36,91.9,73s-7.3,20.3-19.05,20.3S53.8,84.65,53.8,73ZM86.65,76.6C88,65.94,83.33,57.28,73.41,57c-7-.22-13.44,5.49-14.35,12.41C57.65,80.07,62.35,88.69,72.29,89,79.27,89.22,85.75,83.52,86.65,76.6Z"/><path d="M127.91,66.75h-4.79c-.65-6.58-4.68-10-12-10-5.38,0-9.25,2.45-9.25,7.29,0,5.33,4.68,6.58,11.65,8.11S126.22,75.62,126.22,83c0,6.42-5.33,10.28-13.22,10.28-9.74,0-13.77-5-14.75-12.13h4.63c.71,5.55,4.3,8.32,10,8.32,5.28,0,8.76-2.23,8.76-6.26,0-4.4-4.35-5.71-10.17-6.85C103.91,74.8,97,73,97,64.19c0-7.29,5.93-11.37,14.31-11.37C122.25,52.82,127.47,58.91,127.91,66.75Z"/><path d="M135.44,53.58h4.9V72.9l19.15-19.32h6.15L149.92,69.15l17,23.34h-5.71l-14.64-20-6.26,6.25V92.49h-4.9Z"/><path d="M26.18,146.34,12.3,126.15l-6.43,6.42v13.77h-5V107h5V126.9L25.48,107H32l-16,16,16.2,23.32Z"/><path d="M51,147.32c-11.34,0-19-8-19-20.36s7.67-21,19-21C62.47,106,70,114.59,70,127.28,70,138.84,62.52,147.32,51,147.32Zm-.05-36.89C42.59,110.43,37,117.24,37,127s5.61,15.93,14,15.93,14-6.21,14-15.72C65,117.24,59.44,110.43,50.91,110.43Z"/><path d="M101.13,146.34,80.77,114.43v31.91H76V107h5.45l20.58,32.18V107h4.75v39.36Z"/><path d="M112.41,146.34v-4.42l23.66-30.51H113.93V107h28.35v4.53l-23.55,30.41h23.65v4.42Z"/><path d="M148.76,146.34V107H176v4.43H153.78V124h21.44v4.43H153.78v13.5H177v4.42Z"/><path d="M202.22,129.66H189.85v16.68h-5V107h16.25c7.78,0,12.15,4.15,12.15,11.55C213.23,125.07,208.69,129.66,202.22,129.66Zm-1.9-18.25H189.85v13.82h10.47c4.81,0,7.67-2.59,7.67-6.91S205.13,111.41,200.32,111.41Z"/><path d="M235.05,111.41v34.93h-5V111.41h-13V107H248v4.43Z"/></g></g></svg>