<svg xmlns="http://www.w3.org/2000/svg" viewBox="0 0 288.37 190.67"><g id="Ebene_2" data-name="Ebene 2"><g id="Ebene_1-2" data-name="Ebene 1"><path d="M0,0H6.38V25.17L31.34,0h8L18.86,20.28,41.05,50.69H33.61L14.53,24.6,6.38,32.76V50.69H0Z"/><path d="M44.81,34.31V0h6.38V33.68C51.19,42.33,56.08,46,64.44,46c8,0,12.84-3.68,12.84-12.33V0h6.38V34.31c0,12.27-8.58,17.16-19.43,17.16C53.17,51.47,44.81,46.58,44.81,34.31Z"/><path d="M92.3,0h6.39V44.81h26.58v5.88h-33Z"/><path d="M121.3,0h40.13V5.6H144.55V50.69h-6.38V5.6H121.3Z"/><path d="M166.88,34.31V0h6.38V33.68c0,8.65,4.89,12.33,13.26,12.33,8,0,12.83-3.68,12.83-12.33V0h6.38V34.31c0,12.27-8.57,17.16-19.42,17.16C175.25,51.47,166.88,46.58,166.88,34.31Z"/><path d="M214.38,0h23.68c8.93,0,15,5.6,15,13.9,0,6.16-2.69,10.56-8.79,12.55v.21c5.18,1.84,6.81,5.39,7.3,12.9.57,8.16,1.42,10.21,2.34,10.85v.28H247c-1.06-.92-1.27-2.83-1.84-11.34-.5-7.45-3.47-10.07-10.28-10.07H220.76V50.69h-6.38Zm6.38,24.11h15c7.09,0,10.64-3.55,10.64-9.29,0-6.17-2.84-9.29-10.28-9.29H220.76Z"/><path d="M.39,69.81H6.77V95l25-25.17h8L19.25,90.09,41.44,120.5H34L14.92,94.41l-8.15,8.16V120.5H.39Z"/><path d="M46.44,71.54l6.15-1.68L65.9,118.78l-6.16,1.67Z"/><path d="M70.1,95.12c0-15.17,9.5-26.44,24.81-26.44S119.73,80,119.73,95.12s-9.5,26.45-24.82,26.45S70.1,110.3,70.1,95.12Zm42.79,4.68c1.82-13.89-4.32-25.17-17.24-25.58-9.1-.29-17.52,7.14-18.71,16.16-1.84,14,4.3,25.17,17.24,25.57C103.28,116.24,111.72,108.82,112.89,99.8Z"/><path d="M166.65,87h-6.24c-.85-8.58-6.1-13-15.67-13-7,0-12.05,3.19-12.05,9.5,0,7,6.1,8.58,15.17,10.57s16.59,4.53,16.59,14.11c0,8.36-6.95,13.4-17.22,13.4-12.7,0-17.94-6.46-19.22-15.81h6c.92,7.23,5.6,10.84,13,10.84,6.88,0,11.42-2.9,11.42-8.15,0-5.74-5.67-7.45-13.26-8.93-9.85-2-18.86-4.4-18.86-15.81,0-9.51,7.73-14.82,18.65-14.82C159.28,68.82,166.08,76.76,166.65,87Z"/><path d="M176.46,69.81h6.39V95l25-25.17h8L195.32,90.09l22.2,30.41h-7.45L191,94.41l-8.15,8.16V120.5h-6.39Z"/><path d="M34.11,190.67,16,164.35l-8.37,8.38v17.94H1.11V139.38H7.65v26l25.54-26h8.44L20.74,160.27l21.1,30.4Z"/><path d="M82.3,190.67a20.9,20.9,0,0,1-1.48-8.37l.07-4.58c.07-6.33-2.67-9.14-8.44-9.14H55.56v22.09H49V139.38H72.66c10.06,0,15.62,4.85,15.62,13.72,0,5.84-2.32,9.43-8.09,12.24,5.56,2.39,6.82,4.92,7,13.37.07,6.82.64,8.65,3.1,10.34v1.62ZM71.39,145.15H55.56v17.66H71.39c7,0,10.06-2.75,10.06-8.8C81.45,148.24,78.71,145.15,71.39,145.15Z"/><path d="M99.61,190.67V139.38h35.53v5.77h-29v16.39h27.93v5.77H106.15V184.9H136.4v5.77Z"/><path d="M178.82,190.67l-5.27-15.41H153.78l-5.42,15.41h-7l18.29-51.29h8.44l18,51.29Zm-15-44.26-8.44,23.36h16.32Z"/><path d="M205.35,145.15v45.52h-6.54V145.15H181.92v-5.77h40.24v5.77Z"/><path d="M230.47,190.67V139.38H237v51.29Z"/><path d="M270.57,190.67h-7L245.1,139.38h7l15.06,43.41,14.21-43.41h7Z"/></g></g></svg>