<svg xmlns="http://www.w3.org/2000/svg" viewBox="0 0 325.84 175.53"><g id="Ebene_2" data-name="Ebene 2"><g id="Ebene_1-2" data-name="Ebene 1"><path d="M.13,0H6V23.05L28.83,0h7.33L17.4,18.57,37.72,46.42H30.9L13.44,22.53,6,30V46.42H.13Z"/><path d="M41.16,31.42V0H47V30.84c0,7.92,4.48,11.29,12.14,11.29,7.34,0,11.75-3.37,11.75-11.29V0h5.84V31.42c0,11.23-7.85,15.71-17.79,15.71C48.82,47.13,41.16,42.65,41.16,31.42Z"/><path d="M84.65,0h5.84V41h24.35v5.39H84.65Z"/><path d="M111.2,0h36.74V5.13H132.49V46.42h-5.84V5.13H111.2Z"/><path d="M152.94,31.42V0h5.84V30.84c0,7.92,4.48,11.29,12.14,11.29,7.34,0,11.75-3.37,11.75-11.29V0h5.84V31.42c0,11.23-7.85,15.71-17.79,15.71C160.6,47.13,152.94,42.65,152.94,31.42Z"/><path d="M196.43,0h21.68c8.18,0,13.7,5.13,13.7,12.72,0,5.65-2.47,9.68-8.05,11.49v.2c4.74,1.69,6.23,4.93,6.69,11.82.52,7.46,1.3,9.34,2.14,9.93v.26h-6.3c-1-.85-1.16-2.6-1.69-10.39-.45-6.82-3.18-9.22-9.41-9.22H202.27V46.42h-5.84Zm5.84,22.07H216c6.49,0,9.73-3.24,9.73-8.5,0-5.65-2.59-8.51-9.41-8.51H202.27Z"/><path d="M.49,63.92H6.33V87l22.85-23h7.34L17.76,82.49l20.32,27.85H31.26L13.8,86.45,6.33,93.92v16.42H.49Z"/><path d="M42.65,65.5,48.29,64l12.18,44.79-5.64,1.53Z"/><path d="M64.32,87.1C64.32,73.21,73,62.88,87,62.88s22.72,10.33,22.72,24.22-8.7,24.22-22.72,24.22S64.32,101,64.32,87.1Zm39.18,4.28c1.66-12.71-4-23-15.79-23.42-8.33-.27-16,6.54-17.13,14.8-1.68,12.77,3.94,23,15.79,23.42C94.7,106.44,102.42,99.64,103.5,91.38Z"/><path d="M152.73,79.63H147c-.78-7.85-5.58-11.94-14.34-11.94-6.43,0-11,2.92-11,8.7,0,6.36,5.58,7.85,13.89,9.67S150.71,90.21,150.71,99c0,7.66-6.36,12.27-15.77,12.27-11.62,0-16.43-5.91-17.6-14.48h5.52c.85,6.62,5.13,9.94,12,9.94,6.3,0,10.45-2.67,10.45-7.47,0-5.26-5.19-6.82-12.14-8.18-9-1.82-17.27-4-17.27-14.48,0-8.7,7.08-13.57,17.08-13.57C146,63,152.21,70.28,152.73,79.63Z"/><path d="M161.71,63.92h5.85V87l22.85-23h7.33L179,82.49l20.32,27.85h-6.82L175,86.45l-7.46,7.47v16.42h-5.85Z"/><path d="M0,127.9H5.9v23.29L29,127.9h7.41l-19,18.77L38,174.81H31.1L13.45,150.67,5.9,158.21v16.6H0Z"/><path d="M42.12,159.66V127.9H48v31.17c0,8,4.52,11.41,12.27,11.41,7.41,0,11.87-3.41,11.87-11.41V127.9h5.91v31.76c0,11.35-7.94,15.87-18,15.87C49.87,175.53,42.12,171,42.12,159.66Z"/><path d="M86.74,127.9h5.91v41.46h24.6v5.45H86.74Z"/><path d="M123.88,127.9h5.9v46.91h-5.9Z"/><path d="M139.36,127.9h6.24L167,160.51c1.58,2.43,3.42,6,3.42,6h.13V127.9H176v46.91h-6l-21.52-32.67c-1.51-2.3-3.47-5.84-3.47-5.84h-.14v38.51h-5.51Z"/><path d="M199,127.9h6.63L223,174.81h-6.43l-5-14.3h-18.7l-5.05,14.3h-6Zm-4.46,27.82H209.9L204.52,140c-.92-2.62-2.1-6.62-2.1-6.62h-.13s-1.25,3.93-2.17,6.62Z"/><path d="M228.66,127.9h21.92c8.26,0,13.84,5.19,13.84,12.86,0,5.71-2.49,9.78-8.13,11.61v.2c4.78,1.71,6.29,5,6.75,11.94.53,7.55,1.31,9.45,2.17,10v.26h-6.37c-1-.85-1.18-2.62-1.7-10.5-.46-6.88-3.22-9.31-9.52-9.31H234.57v19.81h-5.91Zm5.91,22.31h13.91c6.56,0,9.84-3.28,9.84-8.6,0-5.7-2.63-8.59-9.51-8.59H234.57Z"/><path d="M272.36,127.9h5.91v46.91h-5.91Z"/><path d="M287.85,127.9h5.9v23.29l23.1-23.29h7.41l-19,18.77,20.54,28.14H319L301.3,150.67l-7.55,7.54v16.6h-5.9Z"/></g></g></svg>