<svg xmlns="http://www.w3.org/2000/svg" viewBox="0 0 1403.06 1022.57"><defs><style>.cls-1{fill:#d3d3d3;}.cls-2{fill:none;stroke:#000;stroke-linecap:round;stroke-linejoin:round;stroke-width:3px;}</style></defs><g id="Ebene_2" data-name="Ebene 2"><g id="Ebene_1-2" data-name="Ebene 1"><rect class="cls-1" x="2.22" y="1.5" width="1394.83" height="1015.49"/><rect class="cls-2" x="2.22" y="1.5" width="1394.83" height="1015.49"/><line class="cls-2" x1="1.5" y1="1.59" x2="1401.56" y2="1021.07"/><line class="cls-2" x1="2.64" y1="1015.97" x2="1397.05" y2="1.5"/><path d="M451.88,479.22h-6.09l5.29-24.85a9.57,9.57,0,0,0,.43-2.83,5.82,5.82,0,0,0-6.15-6.16c-6.6,0-11.74,4.93-13.41,12.9l-4.42,20.94h-6.08l11.23-52.82h6.08L434.63,446c4.57-4.27,8.12-5.79,13.55-5.79,6.09,0,9.78,3.4,9.78,9.13a11.61,11.61,0,0,1-.29,2.68Z"/><path d="M461.65,479.22l8.05-38h6.08l-8,38Zm16-43.76h-7.53l1.59-7.47h7.54Z"/><path d="M485.63,462a9.18,9.18,0,0,0-.36,3.34c0,6.15,3.33,9.41,9.05,9.41,4.86,0,8.7-2.6,11.16-7h6.09c-2.25,7.82-9.57,12.6-18.26,12.6s-14.42-6.37-14.42-13.91a35,35,0,0,1,6-18.4,20.16,20.16,0,0,1,16-7.82c7.82,0,13.84,5.43,13.84,12.39a51.52,51.52,0,0,1-1,8.47l-.14.94Zm22.75-7.31c0-5.44-3.26-8.92-8.4-8.92-5.87,0-11.23,4.64-13,11h21.3C508.31,455.89,508.38,455.38,508.38,454.66Z"/><path d="M542.57,446.54c-7.53,0-12.46,4.42-14.27,13l-4.2,19.71H518l8-38h5.51l-1.23,5.94c4.49-5.14,7.75-7,11.95-7a14.25,14.25,0,0,1,2.32.21l-1.3,6.16Z"/><path d="M586.69,479.22l-8.26-21.09-7.75,6.38-3.12,14.71h-6.08l11.23-52.82h6.08l-6.52,30.65,19.49-15.8h7.83L583.5,454.37l10.14,24.85Z"/><path d="M611,480.3c-8.12,0-13.77-5.21-13.77-13.26,0-14.34,8.33-26.87,21.95-26.87,8.7,0,13.91,5.86,13.91,13.54C633.05,468.78,624.14,480.3,611,480.3Zm7.24-34.56c-8.55,0-14.63,9.35-14.63,19.86,0,5.79,3.26,9.12,8.4,9.12,8.62,0,14.71-8.83,14.71-19.63C626.68,449.22,623.56,445.74,618.2,445.74Zm-7.32-10.28,1.6-7.39h6.59l-1.59,7.39Zm11.74,0,1.59-7.39h6.6l-1.6,7.39Z"/><path d="M667.1,479.22H661l5.36-25.29a25.23,25.23,0,0,0,.43-2.68c0-3.33-2.68-5.87-6.3-5.87-6.52,0-11.67,4.93-13.33,12.9l-4.42,20.94h-6.09l8-38h5.51l-.94,4.71a19.07,19.07,0,0,1,14.05-5.79c6,0,9.86,3.55,9.86,9.05a12.39,12.39,0,0,1-.29,2.76Z"/><path d="M707.38,479.22h-6.09l5.36-25.29a23.46,23.46,0,0,0,.44-2.68c0-3.33-2.68-5.87-6.3-5.87-6.52,0-11.67,4.93-13.33,12.9L683,479.22H677l8-38h5.51l-.94,4.71a19.06,19.06,0,0,1,14.05-5.79c6,0,9.85,3.55,9.85,9.05a11.83,11.83,0,0,1-.29,2.76Z"/><path d="M730.56,479.22a22.38,22.38,0,0,1-4.71.5c-4,0-6.45-2.17-6.45-5.72a11.51,11.51,0,0,1,.22-2.25l5.51-25.64H720l1-4.86h5.14l2.25-10.43h6.08l-2.24,10.43h6.44l-1,4.86h-6.45l-5.43,25.43a7,7,0,0,0-.15,1c0,1.16,1,2,2.61,2a14.17,14.17,0,0,0,3.48-.58Z"/><path d="M743.74,462a9.18,9.18,0,0,0-.36,3.34c0,6.15,3.33,9.41,9.06,9.41,4.85,0,8.69-2.6,11.16-7h6.08c-2.25,7.82-9.56,12.6-18.26,12.6S737,473.93,737,466.39a35,35,0,0,1,6-18.4,20.16,20.16,0,0,1,16-7.82c7.83,0,13.84,5.43,13.84,12.39a50.44,50.44,0,0,1-1,8.47l-.14.94Zm22.75-7.31c0-5.44-3.26-8.92-8.4-8.92-5.87,0-11.23,4.64-13,11h21.3C766.42,455.89,766.49,455.38,766.49,454.66Z"/><path d="M827.13,479.22h-5.87l1.23-5.8c-2.17,4.2-8.33,6.88-13.4,6.88-7.54,0-12.46-5.21-12.46-13.69,0-15.29,8.91-26.44,20.93-26.44,5.15,0,8.05,1.88,10.36,6.59l4.35-20.36h6.09ZM817,445.74c-7.89,0-14,9.13-14,19.42,0,6.23,3.19,9.56,8.55,9.56,7.68,0,14-9,14-19.19C825.53,449.37,822.35,445.74,817,445.74Z"/><path d="M844.44,462a9,9,0,0,0-.36,3.34c0,6.15,3.33,9.41,9,9.41,4.86,0,8.7-2.6,11.16-7h6.09c-2.25,7.82-9.57,12.6-18.26,12.6-8.84,0-14.42-6.37-14.42-13.91a35,35,0,0,1,6-18.4,20.18,20.18,0,0,1,16-7.82c7.82,0,13.83,5.43,13.83,12.39a51.3,51.3,0,0,1-1,8.47l-.15.94Zm22.75-7.31c0-5.44-3.26-8.92-8.41-8.92-5.86,0-11.23,4.64-13,11H867C867.12,455.89,867.19,455.38,867.19,454.66Z"/><path d="M876.82,479.22l8-38H891l-8,38Zm16-43.76H885.3l1.59-7.47h7.53Z"/><path d="M923.4,479.22h-6.08l5.36-25.29a25.23,25.23,0,0,0,.43-2.68c0-3.33-2.68-5.87-6.3-5.87-6.52,0-11.67,4.93-13.33,12.9l-4.42,20.94H893l8-38h5.51l-.94,4.71a19.07,19.07,0,0,1,14-5.79c6,0,9.86,3.55,9.86,9.05a12.39,12.39,0,0,1-.29,2.76Z"/><path d="M941.08,462a9,9,0,0,0-.37,3.34c0,6.15,3.34,9.41,9.06,9.41,4.85,0,8.69-2.6,11.16-7H967c-2.24,7.82-9.56,12.6-18.25,12.6s-14.42-6.37-14.42-13.91a35,35,0,0,1,6-18.4,20.16,20.16,0,0,1,16-7.82c7.83,0,13.84,5.43,13.84,12.39a51.3,51.3,0,0,1-1,8.47L969,462Zm22.74-7.31c0-5.44-3.26-8.92-8.4-8.92-5.87,0-11.23,4.64-13,11h21.3C963.75,455.89,963.82,455.38,963.82,454.66Z"/><path d="M332,566.15h-6.81l11.23-52.82h6.81Z"/><path d="M373.93,566.15h-5.87l1.23-5.8c-2.17,4.2-8.33,6.88-13.4,6.88-7.54,0-12.46-5.21-12.46-13.69,0-15.29,8.91-26.44,20.93-26.44,5.15,0,8.05,1.88,10.36,6.59l4.35-20.36h6.09Zm-10.15-33.47c-7.89,0-14,9.12-14,19.41,0,6.23,3.19,9.56,8.55,9.56,7.68,0,14-9,14-19.19C372.33,536.3,369.15,532.68,363.78,532.68Z"/><path d="M391.24,548.9a9,9,0,0,0-.36,3.34c0,6.15,3.33,9.41,9.05,9.41,4.86,0,8.7-2.6,11.16-7h6.09c-2.25,7.82-9.57,12.6-18.26,12.6-8.84,0-14.42-6.37-14.42-13.91a35.06,35.06,0,0,1,6-18.4,20.18,20.18,0,0,1,16-7.82c7.82,0,13.83,5.43,13.83,12.39a51.3,51.3,0,0,1-1,8.47l-.15.94ZM414,541.59c0-5.44-3.26-8.91-8.41-8.91-5.86,0-11.23,4.63-13,11h21.3C413.92,542.82,414,542.31,414,541.59Z"/><path d="M431.52,548.9a9,9,0,0,0-.36,3.34c0,6.15,3.33,9.41,9,9.41,4.86,0,8.7-2.6,11.16-7h6.08c-2.24,7.82-9.56,12.6-18.25,12.6s-14.42-6.37-14.42-13.91a35.06,35.06,0,0,1,6-18.4,20.17,20.17,0,0,1,16-7.82c7.83,0,13.84,5.43,13.84,12.39a51.3,51.3,0,0,1-1,8.47l-.15.94Zm22.75-7.31c0-5.44-3.26-8.91-8.41-8.91-5.87,0-11.23,4.63-13,11h21.3C454.19,542.82,454.27,542.31,454.27,541.59Z"/><path d="M508.53,566.15l.94-4.42a19.15,19.15,0,0,1-13.91,5.5c-6.23,0-10-3-10-7.89a12.12,12.12,0,0,1,.22-2.47l6.08-28.69H498l-5.58,26.3a9.78,9.78,0,0,0-.22,2c0,3.4,2.54,5.58,6.45,5.58,6.16,0,11.3-5.07,13-12.9L516,528.18h6.08l-8,38Z"/><path d="M568.8,566.15,574,541.44c.66-2.46.66-2.46.66-3.55,0-3.48-2.1-5.58-5.51-5.58-5.29,0-10.21,4.35-11.37,10l-5.07,23.84h-6.09L552.21,540a11.91,11.91,0,0,0,.29-2.68c0-3-2.39-5-5.94-5-4.86,0-9.78,4.5-10.94,10l-5.07,23.84h-6.09l8-38H538l-.94,4.71c4.63-4.34,8-5.79,12.89-5.79s7.61,1.95,8.77,6c4.27-4.13,8.4-6,13.11-6,6.38,0,9.2,4.27,9.2,8a24.34,24.34,0,0,1-.43,4l-5.73,27Z"/><path d="M608.93,577.09c-3.26,3.11-8.4,4.85-14.13,4.85-7.75,0-12.82-3.62-12.82-9.2a10.12,10.12,0,0,1,.07-1.3l.07-1h6.09v1c0,3.26,2.9,5.21,7.82,5.21,7.68,0,11.6-3.91,13.7-13.76l.29-1.45c-3.63,3.77-7.9,5.72-12.46,5.72-7.39,0-12.54-5.43-12.54-13.33,0-13.83,8.7-26.8,21.37-26.8,4.35,0,7.9,2,10.07,6.73l1.24-5.65h5.5L616.46,560C614.51,569.19,612.55,573.61,608.93,577.09Zm-3-44.41c-8.55,0-14.56,9.92-14.56,20.06,0,5.73,3,9.28,7.89,9.28,8.63,0,14.35-9.71,14.35-20.43C613.64,536.15,610.6,532.68,606,532.68Z"/><path d="M632.11,548.9a9.2,9.2,0,0,0-.36,3.34c0,6.15,3.33,9.41,9,9.41,4.86,0,8.7-2.6,11.16-7h6.09c-2.25,7.82-9.57,12.6-18.26,12.6s-14.42-6.37-14.42-13.91a35,35,0,0,1,6-18.4,20.14,20.14,0,0,1,16-7.82c7.82,0,13.83,5.43,13.83,12.39a51.3,51.3,0,0,1-1,8.47l-.14.94Zm22.75-7.31c0-5.44-3.26-8.91-8.41-8.91-5.86,0-11.22,4.63-13,11h21.3C654.79,542.82,654.86,542.31,654.86,541.59Z"/><path d="M677.53,567.23c-8.4,0-13.47-3.47-13.47-9.27a15.23,15.23,0,0,1,.43-3.69h6.45c-.07.72-.15,1.37-.15,1.81,0,3.62,2.83,5.57,7.83,5.57,5.58,0,10.36-2.82,10.36-6.95,0-1.52-.51-3.12-5.07-4.27l-5.36-1.38c-7.47-1.88-10-4.06-10-8.48,0-7.68,6.66-13.47,16.73-13.47,7,0,11.89,3.47,11.89,8.55a11.74,11.74,0,0,1-.44,3.11h-6.08a12.71,12.71,0,0,0,.07-1.59c0-2.83-2.39-4.49-6.67-4.49-5.5,0-9.13,2.6-9.13,6.3,0,1.88,2.1,3.33,6.16,4.35l5.51,1.37c6.37,1.6,8.76,3.91,8.76,8.33C695.35,561.65,688.33,567.23,677.53,567.23Z"/><path d="M708.61,548.9a9,9,0,0,0-.36,3.34c0,6.15,3.33,9.41,9,9.41,4.86,0,8.7-2.6,11.16-7h6.09c-2.25,7.82-9.57,12.6-18.26,12.6s-14.42-6.37-14.42-13.91a35.06,35.06,0,0,1,6-18.4,20.18,20.18,0,0,1,16-7.82c7.82,0,13.83,5.43,13.83,12.39a51.3,51.3,0,0,1-1,8.47l-.15.94Zm22.75-7.31c0-5.44-3.26-8.91-8.41-8.91-5.86,0-11.23,4.63-13,11h21.3C731.29,542.82,731.36,542.31,731.36,541.59Z"/><path d="M753.31,566.15a22.38,22.38,0,0,1-4.71.5c-4,0-6.45-2.17-6.45-5.72a11.51,11.51,0,0,1,.22-2.25l5.5-25.64h-5.14l1-4.86h5.15l2.24-10.43h6.09L755,528.18h6.45l-1,4.86H754l-5.43,25.43a7,7,0,0,0-.15,1c0,1.16,1,2,2.61,2a13.67,13.67,0,0,0,3.48-.58Z"/><path d="M757.29,566.15l1.3-5.36,28.62-27.39h-21.3l1.09-5.22h28.4l-1.31,5.44-28.4,27.31h23.62l-1.08,5.22Z"/><path d="M809.67,566.15a22.38,22.38,0,0,1-4.71.5c-4,0-6.45-2.17-6.45-5.72a11.51,11.51,0,0,1,.22-2.25l5.5-25.64h-5.14l1-4.86h5.15l2.24-10.43h6.09l-2.25,10.43h6.45l-1,4.86h-6.45l-5.43,25.43a7,7,0,0,0-.15,1c0,1.16,1,2,2.61,2a13.67,13.67,0,0,0,3.48-.58Z"/><path d="M871.82,566.15h-7.75V535.86L850,566.15h-7l-2.9-38h8v29.56l13.69-29.56h8.41v29.56l14.2-29.56H891Z"/><path d="M895.29,548.9a9.2,9.2,0,0,0-.36,3.34c0,6.15,3.33,9.41,9.06,9.41,4.85,0,8.69-2.6,11.15-7h6.09c-2.25,7.82-9.56,12.6-18.26,12.6s-14.42-6.37-14.42-13.91a35,35,0,0,1,6-18.4,20.16,20.16,0,0,1,16-7.82c7.82,0,13.84,5.43,13.84,12.39a51.52,51.52,0,0,1-1,8.47l-.14.94ZM918,541.59c0-5.44-3.26-8.91-8.4-8.91-5.87,0-11.23,4.63-13,11h21.3C918,542.82,918,542.31,918,541.59Z"/><path d="M952.23,533.47c-7.53,0-12.46,4.42-14.27,13l-4.2,19.71h-6.09l8.05-38h5.5L940,534.12c4.49-5.14,7.75-7,12-7a14.25,14.25,0,0,1,2.32.21l-1.3,6.16Z"/><path d="M981.94,566.15h-5.87l1.23-5.8c-2.17,4.2-8.33,6.88-13.4,6.88-7.54,0-12.47-5.21-12.47-13.69,0-15.29,8.92-26.44,20.94-26.44,5.15,0,8,1.88,10.36,6.59l4.35-20.36h6.09Zm-10.15-33.47c-7.89,0-14,9.12-14,19.41,0,6.23,3.19,9.56,8.55,9.56,7.68,0,14-9,14-19.19C980.34,536.3,977.15,532.68,971.79,532.68Z"/><path d="M999.25,548.9a9,9,0,0,0-.36,3.34c0,6.15,3.33,9.41,9.05,9.41,4.86,0,8.7-2.6,11.16-7h6.08c-2.24,7.82-9.56,12.6-18.25,12.6s-14.42-6.37-14.42-13.91a35.06,35.06,0,0,1,6-18.4,20.17,20.17,0,0,1,16-7.82c7.83,0,13.84,5.43,13.84,12.39a51.3,51.3,0,0,1-1,8.47l-.15.94Zm22.75-7.31c0-5.44-3.26-8.91-8.41-8.91-5.87,0-11.23,4.63-13,11h21.3C1021.92,542.82,1022,542.31,1022,541.59Z"/><path d="M1062.13,566.15H1056l5.37-25.29a25.23,25.23,0,0,0,.43-2.68c0-3.33-2.68-5.87-6.3-5.87-6.52,0-11.67,4.93-13.33,12.9l-4.42,20.94h-6.09l8-38h5.51l-.94,4.71a19.06,19.06,0,0,1,14-5.79c6,0,9.86,3.55,9.86,9a12.33,12.33,0,0,1-.29,2.76Z"/><path d="M1080,566.15h-6.08l1.59-7.47h6.08Zm1-12.17h-2.89l1.66-15.29,5.36-25.36h6.09l-5.36,25.36Z"/></g></g></svg>