<svg xmlns="http://www.w3.org/2000/svg" viewBox="0 0 1403.06 1022.57"><defs><style>.cls-1{fill:#d3d3d3;}.cls-2{fill:none;stroke:#000;stroke-linecap:round;stroke-linejoin:round;stroke-width:3px;}</style></defs><g id="Ebene_2" data-name="Ebene 2"><g id="Ebene_1-2" data-name="Ebene 1"><rect class="cls-1" x="2.22" y="1.5" width="1394.83" height="1015.49"/><rect class="cls-2" x="2.22" y="1.5" width="1394.83" height="1015.49"/><line class="cls-2" x1="1.5" y1="1.59" x2="1401.56" y2="1021.07"/><line class="cls-2" x1="2.64" y1="1015.97" x2="1397.05" y2="1.5"/><path d="M457.21,494.1h-7.39l-3-42.89-21,42.89h-9.71V441.28h8.34v42.89l20.86-42.89h7l3,42.89,19.05-42.89h7.53Z"/><path d="M481.69,476.85a9.2,9.2,0,0,0-.36,3.34c0,6.15,3.33,9.41,9.06,9.41,4.85,0,8.69-2.6,11.15-7h6.09c-2.25,7.82-9.56,12.6-18.26,12.6S475,488.81,475,481.27a35,35,0,0,1,6-18.4,20.16,20.16,0,0,1,16-7.82c7.82,0,13.84,5.43,13.84,12.39a50.44,50.44,0,0,1-1,8.47l-.14.94Zm22.75-7.31c0-5.44-3.26-8.92-8.4-8.92-5.87,0-11.23,4.64-13,11h21.3C504.37,470.77,504.44,470.26,504.44,469.54Z"/><path d="M520.09,494.1H514l11.23-52.82h6.09Z"/><path d="M544.36,495.18c-8.41,0-13.63-5.79-13.63-13.69,0-15.29,8.77-26.44,22-26.44,7.68,0,12.53,5.14,12.53,10.65,0,.21-.07,1-.14,2.1l-.07,1.08H559a13.87,13.87,0,0,0,.07-1.59c0-4.13-2.82-6.67-7.39-6.67-8.69,0-14.56,9.79-14.56,20.07,0,5.65,3.26,8.91,8.26,8.91,5.22,0,9.06-2.6,11.23-8.55h6.08C559.71,491.34,553.7,495.18,544.36,495.18Z"/><path d="M596.52,494.1h-6.09l5.29-24.85a9.57,9.57,0,0,0,.43-2.83,5.82,5.82,0,0,0-6.15-6.16c-6.6,0-11.74,4.93-13.41,12.9l-4.42,20.94h-6.08l11.23-52.82h6.08l-4.13,19.56c4.57-4.27,8.12-5.79,13.55-5.79,6.09,0,9.78,3.4,9.78,9.13a11.61,11.61,0,0,1-.29,2.68Z"/><path d="M614.19,476.85a9.2,9.2,0,0,0-.36,3.34c0,6.15,3.33,9.41,9,9.41,4.86,0,8.7-2.6,11.16-7h6.09c-2.25,7.82-9.57,12.6-18.26,12.6-8.84,0-14.42-6.37-14.42-13.91a35,35,0,0,1,6-18.4,20.14,20.14,0,0,1,16-7.82c7.82,0,13.83,5.43,13.83,12.39a51.3,51.3,0,0,1-1,8.47l-.14.94Zm22.75-7.31c0-5.44-3.26-8.92-8.41-8.92-5.86,0-11.23,4.64-13,11h21.3C636.87,470.77,636.94,470.26,636.94,469.54Z"/><path d="M675.77,494.1H669l11.23-52.82H687Z"/><path d="M717.71,494.1h-5.87l1.24-5.8c-2.18,4.2-8.34,6.88-13.41,6.88-7.53,0-12.46-5.21-12.46-13.69,0-15.29,8.91-26.44,20.94-26.44,5.14,0,8,1.88,10.36,6.59l4.35-20.36h6.08Zm-10.14-33.48c-7.9,0-14,9.13-14,19.42,0,6.23,3.18,9.56,8.55,9.56,7.68,0,14-9,14-19.19C716.12,464.25,712.93,460.62,707.57,460.62Z"/><path d="M735,476.85a9.2,9.2,0,0,0-.36,3.34c0,6.15,3.33,9.41,9.06,9.41,4.85,0,8.69-2.6,11.15-7H761c-2.25,7.82-9.56,12.6-18.26,12.6s-14.41-6.37-14.41-13.91a35,35,0,0,1,6-18.4,20.16,20.16,0,0,1,16-7.82c7.83,0,13.84,5.43,13.84,12.39a50.44,50.44,0,0,1-1,8.47l-.14.94Zm22.75-7.31c0-5.44-3.26-8.92-8.4-8.92-5.87,0-11.23,4.64-13,11h21.3C757.7,470.77,757.77,470.26,757.77,469.54Z"/><path d="M775.3,476.85a9.2,9.2,0,0,0-.36,3.34c0,6.15,3.33,9.41,9.06,9.41,4.85,0,8.69-2.6,11.15-7h6.09c-2.25,7.82-9.56,12.6-18.26,12.6s-14.42-6.37-14.42-13.91a35,35,0,0,1,6-18.4,20.16,20.16,0,0,1,16-7.82c7.82,0,13.84,5.43,13.84,12.39a51.52,51.52,0,0,1-1,8.47l-.14.94Zm22.75-7.31c0-5.44-3.26-8.92-8.4-8.92-5.87,0-11.23,4.64-13,11h21.3C798,470.77,798.05,470.26,798.05,469.54Z"/><path d="M852.24,494.1,844,473l-7.75,6.38-3.12,14.71H827l11.23-52.82h6.09l-6.52,30.65,19.49-15.8h7.82l-16.08,13.12,10.14,24.85Z"/><path d="M876.5,495.18c-8.11,0-13.76-5.21-13.76-13.26,0-14.34,8.33-26.87,22-26.87,8.7,0,13.91,5.86,13.91,13.54C898.6,483.66,889.69,495.18,876.5,495.18Zm7.25-34.56c-8.55,0-14.63,9.35-14.63,19.86,0,5.79,3.26,9.12,8.4,9.12,8.62,0,14.71-8.83,14.71-19.63C892.23,464.1,889.11,460.62,883.75,460.62Zm-7.32-10.28L878,443h6.59L883,450.34Zm11.74,0,1.59-7.39h6.6l-1.6,7.39Z"/><path d="M932.65,494.1h-6.09l5.36-25.29a23.46,23.46,0,0,0,.44-2.68c0-3.33-2.68-5.87-6.3-5.87-6.52,0-11.67,4.93-13.33,12.9l-4.42,20.94h-6.09l8-38h5.51l-.94,4.71a19.06,19.06,0,0,1,14-5.79c6,0,9.85,3.55,9.85,9.05a11.83,11.83,0,0,1-.29,2.76Z"/><path d="M972.93,494.1h-6.09l5.36-25.29a23.46,23.46,0,0,0,.44-2.68c0-3.33-2.68-5.87-6.31-5.87-6.52,0-11.66,4.93-13.33,12.9l-4.42,20.94H942.5l8-38h5.51l-.95,4.71a19.08,19.08,0,0,1,14.06-5.79c6,0,9.85,3.55,9.85,9.05a11.83,11.83,0,0,1-.29,2.76Z"/><path d="M996.11,494.1a22.38,22.38,0,0,1-4.71.5c-4,0-6.45-2.17-6.45-5.72a11.51,11.51,0,0,1,.22-2.25l5.5-25.64h-5.14l1-4.86h5.15l2.24-10.43H1000l-2.25,10.43h6.45l-1,4.86h-6.45l-5.44,25.43a8.35,8.35,0,0,0-.14,1c0,1.16,1,2,2.61,2a14.17,14.17,0,0,0,3.48-.58Z"/><path d="M1009.29,476.85a9.2,9.2,0,0,0-.36,3.34c0,6.15,3.33,9.41,9.06,9.41,4.85,0,8.69-2.6,11.15-7h6.09c-2.25,7.82-9.57,12.6-18.26,12.6s-14.42-6.37-14.42-13.91a35,35,0,0,1,6-18.4,20.14,20.14,0,0,1,16-7.82c7.82,0,13.84,5.43,13.84,12.39a51.52,51.52,0,0,1-1,8.47l-.14.94Zm22.75-7.31c0-5.44-3.26-8.92-8.4-8.92-5.87,0-11.23,4.64-13,11h21.3C1032,470.77,1032,470.26,1032,469.54Z"/><path d="M381,581H375l5.29-24.85a9.37,9.37,0,0,0,.44-2.83,5.83,5.83,0,0,0-6.16-6.16c-6.59,0-11.74,4.93-13.4,12.9L356.7,581h-6.09l11.23-52.82h6.09l-4.13,19.56c4.56-4.27,8.11-5.79,13.54-5.79,6.09,0,9.78,3.4,9.78,9.13a11.61,11.61,0,0,1-.29,2.68Z"/><path d="M390.82,581l8-38h6.08l-8,38Zm16-43.76h-7.54l1.6-7.47h7.53Z"/><path d="M414.79,563.78a9.18,9.18,0,0,0-.36,3.34c0,6.16,3.33,9.42,9.06,9.42,4.85,0,8.69-2.61,11.15-7h6.09c-2.25,7.82-9.56,12.6-18.26,12.6s-14.41-6.37-14.41-13.91a35,35,0,0,1,6-18.4,20.16,20.16,0,0,1,16-7.82c7.82,0,13.84,5.43,13.84,12.39a50.33,50.33,0,0,1-1,8.47l-.14.94Zm22.75-7.31c0-5.44-3.26-8.92-8.4-8.92-5.87,0-11.23,4.64-13,11h21.3C437.47,557.7,437.54,557.19,437.54,556.47Z"/><path d="M471.73,548.35c-7.53,0-12.46,4.42-14.27,13L453.26,581h-6.09l8.05-38h5.5L459.49,549c4.49-5.14,7.75-7,12-7a14.24,14.24,0,0,1,2.31.21l-1.3,6.16Z"/><path d="M515.92,581l1-4.42a19.15,19.15,0,0,1-13.91,5.5c-6.24,0-10-3-10-7.89a12.19,12.19,0,0,1,.22-2.47l6.08-28.69h6.09l-5.58,26.3a9.78,9.78,0,0,0-.22,2c0,3.4,2.54,5.58,6.45,5.58,6.16,0,11.3-5.07,13-12.9l4.42-20.94h6.08l-8,38Z"/><path d="M576.2,581l5.21-24.71c.66-2.46.66-2.46.66-3.55,0-3.48-2.1-5.58-5.51-5.58-5.29,0-10.22,4.35-11.37,10L560.11,581H554l5.58-26.16a12.51,12.51,0,0,0,.29-2.68c0-3-2.39-5-5.94-5-4.86,0-9.78,4.5-10.94,10L537.94,581h-6.08l8-38h5.51l-.94,4.71c4.63-4.34,8-5.79,12.89-5.79,4.78,0,7.61,1.95,8.77,6,4.27-4.13,8.4-6,13.11-6,6.38,0,9.2,4.27,9.2,8a25.49,25.49,0,0,1-.43,4l-5.73,27Z"/><path d="M616.33,592c-3.26,3.11-8.41,4.85-14.13,4.85-7.75,0-12.82-3.62-12.82-9.2a10,10,0,0,1,.07-1.3l.07-1h6.09v1c0,3.26,2.9,5.21,7.82,5.21,7.68,0,11.59-3.91,13.7-13.76l.28-1.45A17.09,17.09,0,0,1,605,582.11c-7.39,0-12.53-5.43-12.53-13.33,0-13.83,8.69-26.8,21.37-26.8,4.35,0,7.9,2,10.07,6.73l1.23-5.65h5.51l-6.74,31.81C621.91,584.07,620,588.49,616.33,592Zm-3-44.42c-8.55,0-14.56,9.93-14.56,20.07,0,5.73,3,9.28,7.89,9.28,8.62,0,14.35-9.71,14.35-20.43C621,551,618,547.55,613.36,547.55Z"/><path d="M639.51,563.78a9,9,0,0,0-.36,3.34c0,6.16,3.33,9.42,9.05,9.42,4.86,0,8.7-2.61,11.16-7h6.09c-2.25,7.82-9.57,12.6-18.26,12.6-8.84,0-14.42-6.37-14.42-13.91a35.06,35.06,0,0,1,6-18.4,20.18,20.18,0,0,1,16-7.82c7.82,0,13.83,5.43,13.83,12.39a51.18,51.18,0,0,1-1,8.47l-.15.94Zm22.75-7.31c0-5.44-3.26-8.92-8.41-8.92-5.86,0-11.23,4.64-13,11h21.3C662.19,557.7,662.26,557.19,662.26,556.47Z"/><path d="M684.93,582.11c-8.4,0-13.47-3.47-13.47-9.27a15.35,15.35,0,0,1,.43-3.7h6.45c-.07.73-.15,1.38-.15,1.82,0,3.62,2.83,5.58,7.83,5.58,5.58,0,10.36-2.83,10.36-7,0-1.52-.51-3.12-5.07-4.28L686,563.93c-7.47-1.89-10-4.06-10-8.48,0-7.68,6.66-13.47,16.73-13.47,7,0,11.88,3.48,11.88,8.55a11.65,11.65,0,0,1-.43,3.11H698a11.13,11.13,0,0,0,.08-1.59c0-2.83-2.39-4.5-6.67-4.5-5.5,0-9.13,2.61-9.13,6.31,0,1.88,2.1,3.33,6.16,4.35l5.51,1.37c6.37,1.6,8.76,3.91,8.76,8.33C702.75,576.54,695.73,582.11,684.93,582.11Z"/><path d="M716,563.78a9,9,0,0,0-.36,3.34c0,6.16,3.33,9.42,9.05,9.42,4.86,0,8.7-2.61,11.16-7h6.08c-2.24,7.82-9.56,12.6-18.25,12.6-8.84,0-14.42-6.37-14.42-13.91a35.06,35.06,0,0,1,6-18.4,20.17,20.17,0,0,1,16-7.82c7.83,0,13.84,5.43,13.84,12.39a51.18,51.18,0,0,1-1,8.47l-.15.94Zm22.75-7.31c0-5.44-3.26-8.92-8.41-8.92-5.87,0-11.23,4.64-13,11h21.3C738.68,557.7,738.76,557.19,738.76,556.47Z"/><path d="M760.71,581a22.38,22.38,0,0,1-4.71.5c-4,0-6.45-2.17-6.45-5.72a11.51,11.51,0,0,1,.22-2.25l5.5-25.64h-5.14l1-4.86h5.15l2.24-10.43h6.09l-2.25,10.43h6.45l-1,4.86h-6.45l-5.44,25.43a8.35,8.35,0,0,0-.14,1c0,1.16,1,2,2.61,2a13.55,13.55,0,0,0,3.47-.58Z"/><path d="M764.69,581l1.3-5.36,28.62-27.39h-21.3l1.09-5.22h28.4l-1.31,5.44-28.4,27.31h23.62L795.62,581Z"/><path d="M817.07,581a22.38,22.38,0,0,1-4.71.5c-4,0-6.45-2.17-6.45-5.72a11.51,11.51,0,0,1,.22-2.25l5.5-25.64h-5.14l1-4.86h5.15l2.24-10.43H821l-2.25,10.43h6.45l-1,4.86h-6.45l-5.44,25.43a8.35,8.35,0,0,0-.14,1c0,1.16,1,2,2.61,2a13.55,13.55,0,0,0,3.47-.58Z"/><path d="M879.22,581h-7.75V550.74L857.34,581h-7l-2.9-38h8v29.56l13.69-29.56h8.41v29.56l14.2-29.56h6.59Z"/><path d="M902.69,563.78a9.18,9.18,0,0,0-.36,3.34c0,6.16,3.33,9.42,9.06,9.42,4.85,0,8.69-2.61,11.15-7h6.09c-2.25,7.82-9.56,12.6-18.26,12.6S896,575.74,896,568.2a35,35,0,0,1,6-18.4A20.16,20.16,0,0,1,918,542c7.82,0,13.84,5.43,13.84,12.39a51.4,51.4,0,0,1-1,8.47l-.14.94Zm22.75-7.31c0-5.44-3.26-8.92-8.4-8.92-5.87,0-11.23,4.64-13,11h21.3C925.37,557.7,925.44,557.19,925.44,556.47Z"/><path d="M959.63,548.35c-7.53,0-12.46,4.42-14.27,13L941.16,581h-6.09l8-38h5.5L947.39,549c4.49-5.14,7.75-7,12-7a14.25,14.25,0,0,1,2.32.21l-1.3,6.16Z"/><path d="M989.33,581h-5.86l1.23-5.8c-2.18,4.2-8.33,6.88-13.4,6.88-7.54,0-12.47-5.21-12.47-13.69,0-15.29,8.91-26.44,20.94-26.44,5.15,0,8,1.88,10.36,6.59l4.35-20.36h6.08Zm-10.14-33.48c-7.89,0-14,9.13-14,19.42,0,6.23,3.19,9.57,8.55,9.57,7.68,0,14-9,14-19.2C987.74,551.18,984.55,547.55,979.19,547.55Z"/><path d="M1006.65,563.78a9,9,0,0,0-.37,3.34c0,6.16,3.34,9.42,9.06,9.42,4.85,0,8.69-2.61,11.16-7h6.08c-2.24,7.82-9.56,12.6-18.25,12.6-8.84,0-14.42-6.37-14.42-13.91a35.06,35.06,0,0,1,6-18.4,20.16,20.16,0,0,1,16-7.82c7.83,0,13.84,5.43,13.84,12.39a51.18,51.18,0,0,1-1,8.47l-.15.94Zm22.75-7.31c0-5.44-3.26-8.92-8.41-8.92-5.87,0-11.23,4.64-13,11h21.3C1029.32,557.7,1029.4,557.19,1029.4,556.47Z"/><path d="M1069.53,581h-6.09l5.36-25.29a23.46,23.46,0,0,0,.44-2.68c0-3.33-2.68-5.87-6.3-5.87-6.53,0-11.67,4.93-13.34,12.9L1045.19,581h-6.09l8-38h5.51l-.94,4.71a19,19,0,0,1,14-5.79c6,0,9.85,3.55,9.85,9a11.83,11.83,0,0,1-.29,2.76Z"/><path d="M1109,554.22c-5.36,4.06-6.52,5.36-7.54,9l-.72,3.4h-6.52l.87-4c.94-4.41,2.17-5.65,9.85-11.8,5.58-4.42,7.61-7.54,7.61-11.67,0-3.69-3.19-6.23-7.75-6.23-6.38,0-9.86,3.48-11.45,11.37h-6.16c2.25-11.15,8.77-16.95,19.2-16.95,8.55,0,13.11,4.93,13.11,10.94C1119.51,543.86,1116.47,548.64,1109,554.22ZM1097.71,581h-6.52l1.59-7.47h6.52Z"/></g></g></svg>