<svg xmlns="http://www.w3.org/2000/svg" viewBox="0 0 1403.06 1022.57"><defs><style>.cls-1{fill:#d3d3d3;}.cls-2{fill:none;stroke:#000;stroke-linecap:round;stroke-linejoin:round;stroke-width:3px;}</style></defs><g id="Ebene_2" data-name="Ebene 2"><g id="Ebene_1-2" data-name="Ebene 1"><rect class="cls-1" x="2.22" y="1.5" width="1394.83" height="1015.49"/><rect class="cls-2" x="2.22" y="1.5" width="1394.83" height="1015.49"/><line class="cls-2" x1="1.5" y1="1.59" x2="1401.56" y2="1021.07"/><line class="cls-2" x1="2.64" y1="1015.97" x2="1397.05" y2="1.5"/><path d="M428.3,495.56h-6.08l5.28-24.85a9.37,9.37,0,0,0,.44-2.83,5.83,5.83,0,0,0-6.16-6.16c-6.59,0-11.74,4.93-13.4,12.9L404,495.56h-6.09l11.23-52.82h6.09l-4.13,19.56c4.56-4.27,8.11-5.79,13.55-5.79,6.08,0,9.78,3.4,9.78,9.13a12.19,12.19,0,0,1-.29,2.68Z"/><path d="M438.08,495.56l8-38h6.09l-8,38Zm16-43.76h-7.54l1.6-7.47h7.53Z"/><path d="M462.06,478.31a9,9,0,0,0-.37,3.34c0,6.15,3.34,9.41,9.06,9.41,4.85,0,8.69-2.6,11.16-7H488c-2.24,7.82-9.56,12.6-18.25,12.6-8.84,0-14.42-6.37-14.42-13.91a35.06,35.06,0,0,1,6-18.4,20.16,20.16,0,0,1,16-7.82c7.83,0,13.84,5.43,13.84,12.39a51.3,51.3,0,0,1-1,8.47l-.15.94ZM484.8,471c0-5.44-3.26-8.92-8.4-8.92-5.87,0-11.23,4.64-13,11h21.3C484.73,472.23,484.8,471.72,484.8,471Z"/><path d="M519,462.88c-7.54,0-12.46,4.42-14.28,13l-4.2,19.71h-6.08l8-38H508l-1.23,5.94c4.5-5.14,7.76-7,12-7a14.45,14.45,0,0,1,2.32.21l-1.31,6.16Z"/><path d="M563.11,495.56l-8.26-21.09-7.75,6.38L544,495.56H537.9l11.23-52.82h6.09l-6.52,30.65,19.49-15.8H576l-16.08,13.12,10.14,24.85Z"/><path d="M587.38,496.64c-8.11,0-13.76-5.21-13.76-13.26,0-14.34,8.33-26.87,22-26.87,8.69,0,13.91,5.86,13.91,13.54C609.48,485.12,600.57,496.64,587.38,496.64Zm7.25-34.56c-8.55,0-14.64,9.35-14.64,19.86,0,5.79,3.26,9.12,8.41,9.12,8.62,0,14.7-8.83,14.7-19.63C603.1,465.56,600,462.08,594.63,462.08Zm-7.32-10.28,1.59-7.39h6.6l-1.6,7.39Zm11.74,0,1.59-7.39h6.59l-1.59,7.39Z"/><path d="M643.53,495.56h-6.09l5.36-25.29a23.46,23.46,0,0,0,.44-2.68c0-3.33-2.69-5.87-6.31-5.87-6.52,0-11.66,4.93-13.33,12.9l-4.42,20.94H613.1l8-38h5.5l-.94,4.71a19.08,19.08,0,0,1,14.06-5.79c6,0,9.85,3.55,9.85,9.05a11.83,11.83,0,0,1-.29,2.76Z"/><path d="M683.8,495.56h-6.08l5.36-25.29a22.82,22.82,0,0,0,.43-2.68c0-3.33-2.68-5.87-6.3-5.87-6.52,0-11.66,4.93-13.33,12.9l-4.42,20.94h-6.09l8-38h5.5L666,462.3A19.08,19.08,0,0,1,680,456.51c6,0,9.85,3.55,9.85,9.05a11.83,11.83,0,0,1-.29,2.76Z"/><path d="M707,495.56a22.3,22.3,0,0,1-4.71.5c-4,0-6.44-2.17-6.44-5.72a12.32,12.32,0,0,1,.21-2.25l5.51-25.64h-5.14l1-4.86h5.14l2.25-10.43h6.09l-2.25,10.43h6.45l-1,4.86h-6.44l-5.44,25.43a8.35,8.35,0,0,0-.14,1c0,1.16,1,2,2.61,2a13.62,13.62,0,0,0,3.47-.58Z"/><path d="M720.17,478.31a9,9,0,0,0-.36,3.34c0,6.15,3.33,9.41,9.05,9.41,4.86,0,8.7-2.6,11.16-7h6.08c-2.24,7.82-9.56,12.6-18.25,12.6-8.84,0-14.42-6.37-14.42-13.91a35.06,35.06,0,0,1,6-18.4,20.18,20.18,0,0,1,16-7.82c7.82,0,13.83,5.43,13.83,12.39a51.3,51.3,0,0,1-1,8.47l-.15.94ZM742.92,471c0-5.44-3.26-8.92-8.41-8.92-5.87,0-11.23,4.64-13,11h21.3C742.85,472.23,742.92,471.72,742.92,471Z"/><path d="M780.59,478.31a9,9,0,0,0-.37,3.34c0,6.15,3.34,9.41,9.06,9.41,4.85,0,8.69-2.6,11.16-7h6.08c-2.24,7.82-9.56,12.6-18.26,12.6s-14.41-6.37-14.41-13.91a35.06,35.06,0,0,1,6-18.4,20.16,20.16,0,0,1,16-7.82c7.83,0,13.84,5.43,13.84,12.39a51.3,51.3,0,0,1-1,8.47l-.15.94ZM803.33,471c0-5.44-3.26-8.92-8.4-8.92-5.87,0-11.23,4.64-13,11h21.3C803.26,472.23,803.33,471.72,803.33,471Z"/><path d="M813,495.56l8-38h6.08l-8,38Zm16-43.76h-7.54l1.6-7.47h7.53Z"/><path d="M859.55,495.56h-6.09l5.36-25.29a23.46,23.46,0,0,0,.44-2.68c0-3.33-2.68-5.87-6.3-5.87-6.53,0-11.67,4.93-13.33,12.9l-4.42,20.94h-6.09l8-38h5.51l-.94,4.71a19,19,0,0,1,14-5.79c6,0,9.85,3.55,9.85,9.05a11.83,11.83,0,0,1-.29,2.76Z"/><path d="M907.79,448.68l-3.62,16.88h25.14l-1.23,5.94H902.94l-5.14,24.06H891l11.23-52.82h35.42l-1.23,5.94Z"/><path d="M946.19,496.64c-8.12,0-13.77-5.21-13.77-13.26,0-14.34,8.33-26.87,22-26.87,8.7,0,13.91,5.86,13.91,13.54C968.28,485.12,959.37,496.64,946.19,496.64Zm7.24-34.56c-8.55,0-14.63,9.35-14.63,19.86,0,5.79,3.26,9.12,8.4,9.12,8.62,0,14.71-8.83,14.71-19.63C961.91,465.56,958.79,462.08,953.43,462.08Z"/><path d="M984.15,495.56a22.38,22.38,0,0,1-4.71.5c-4,0-6.45-2.17-6.45-5.72a11.51,11.51,0,0,1,.22-2.25l5.5-25.64h-5.14l1-4.86h5.15L982,447.16h6.09l-2.25,10.43h6.45l-1,4.86H984.8l-5.43,25.43a7,7,0,0,0-.15,1c0,1.16,1,2,2.61,2a13.67,13.67,0,0,0,3.48-.58Z"/><path d="M1004.07,496.64c-8.11,0-13.77-5.21-13.77-13.26,0-14.34,8.34-26.87,22-26.87,8.69,0,13.91,5.86,13.91,13.54C1026.17,485.12,1017.26,496.64,1004.07,496.64Zm7.24-34.56c-8.54,0-14.63,9.35-14.63,19.86,0,5.79,3.26,9.12,8.4,9.12,8.63,0,14.71-8.83,14.71-19.63C1019.79,465.56,1016.68,462.08,1011.31,462.08Z"/><path d="M545.26,582.49h-6.59l-5.37-38H540l3.55,30.58,17.68-30.58h6.59Z"/><path d="M578.51,583.57c-8.11,0-13.77-5.21-13.77-13.25,0-14.35,8.34-26.88,22-26.88,8.69,0,13.91,5.87,13.91,13.55C600.61,572.05,591.7,583.57,578.51,583.57ZM585.75,549c-8.54,0-14.63,9.34-14.63,19.85,0,5.79,3.26,9.13,8.4,9.13,8.63,0,14.71-8.84,14.71-19.64C594.23,552.49,591.12,549,585.75,549Z"/><path d="M634.65,582.49h-6.08l5.36-25.29a22.82,22.82,0,0,0,.43-2.68c0-3.33-2.68-5.87-6.3-5.87-6.52,0-11.66,4.93-13.33,12.9l-4.42,20.94h-6.09l8-38h5.5l-.94,4.71a19.08,19.08,0,0,1,14.06-5.79c6,0,9.85,3.55,9.85,9a11.77,11.77,0,0,1-.29,2.76Z"/><path d="M695.43,582.49h-5.87l1.24-5.8c-2.18,4.2-8.33,6.88-13.41,6.88-7.53,0-12.46-5.21-12.46-13.69,0-15.29,8.91-26.44,20.94-26.44,5.14,0,8,1.88,10.36,6.59l4.35-20.36h6.08ZM685.29,549c-7.9,0-14,9.12-14,19.41,0,6.23,3.19,9.57,8.55,9.57,7.68,0,14-9,14-19.2C693.84,552.64,690.65,549,685.29,549Z"/><path d="M704.85,582.49l8-38H719l-8,38Zm16-43.76h-7.54l1.6-7.46h7.53Z"/><path d="M745.49,549.81c-7.54,0-12.46,4.42-14.27,13L727,582.49h-6.08l8-38h5.51l-1.23,5.94c4.49-5.14,7.75-7,12-7a14.25,14.25,0,0,1,2.32.21l-1.31,6.16Z"/><path d="M778.23,583.57c-8.4,0-13.47-3.47-13.47-9.27a15.23,15.23,0,0,1,.43-3.69h6.45c-.07.72-.15,1.37-.15,1.81,0,3.62,2.83,5.58,7.83,5.58,5.58,0,10.36-2.83,10.36-7,0-1.52-.51-3.12-5.07-4.27l-5.36-1.38c-7.47-1.88-10-4.06-10-8.48,0-7.68,6.66-13.47,16.73-13.47,7,0,11.88,3.47,11.88,8.55a11.65,11.65,0,0,1-.43,3.11h-6.09a11.13,11.13,0,0,0,.08-1.59c0-2.83-2.39-4.49-6.67-4.49-5.5,0-9.13,2.6-9.13,6.3,0,1.88,2.1,3.33,6.16,4.35l5.51,1.37c6.37,1.6,8.76,3.92,8.76,8.33C796.05,578,789,583.57,778.23,583.57Z"/><path d="M809.31,565.24a9,9,0,0,0-.36,3.34c0,6.16,3.33,9.42,9,9.42,4.86,0,8.7-2.61,11.16-7h6.09c-2.25,7.82-9.57,12.6-18.26,12.6-8.84,0-14.42-6.37-14.42-13.91a35.06,35.06,0,0,1,6-18.4,20.18,20.18,0,0,1,16-7.82c7.82,0,13.83,5.43,13.83,12.39a51.18,51.18,0,0,1-1,8.47l-.15.94Zm22.75-7.31c0-5.44-3.26-8.91-8.41-8.91-5.86,0-11.23,4.63-13,11h21.3C832,559.16,832.06,558.65,832.06,557.93Z"/><path d="M841.69,582.49l8-38h6.09l-8,38Zm16-43.76h-7.53l1.59-7.46h7.53Z"/><path d="M888.27,582.49h-6.08l5.36-25.29a25.23,25.23,0,0,0,.43-2.68c0-3.33-2.68-5.87-6.3-5.87-6.52,0-11.67,4.93-13.33,12.9l-4.42,20.94h-6.09l8-38h5.5l-.94,4.71a19.07,19.07,0,0,1,14-5.79c6,0,9.86,3.55,9.86,9a11.77,11.77,0,0,1-.29,2.76Z"/><path d="M906.16,582.49h-6.08l1.59-7.46h6.09Zm1-12.17h-2.9L906,555l5.36-25.36h6.08L912,555Z"/></g></g></svg>