<svg xmlns="http://www.w3.org/2000/svg" viewBox="0 0 1403.06 1022.57"><defs><style>.cls-1{fill:#d3d3d3;}.cls-2{fill:none;stroke:#000;stroke-linecap:round;stroke-linejoin:round;stroke-width:3px;}</style></defs><g id="Ebene_2" data-name="Ebene 2"><g id="Ebene_1-2" data-name="Ebene 1"><rect class="cls-1" x="2.22" y="1.5" width="1394.83" height="1015.49"/><rect class="cls-2" x="2.22" y="1.5" width="1394.83" height="1015.49"/><line class="cls-2" x1="1.5" y1="1.59" x2="1401.56" y2="1021.07"/><line class="cls-2" x1="2.64" y1="1015.97" x2="1397.05" y2="1.5"/><path d="M501.48,500.22h-7.39l-3-42.89-21,42.89H460.4V447.41h8.33V490.3l20.87-42.89h6.95l3,42.89,19.06-42.89h7.53Z"/><path d="M521,500.22l8-38h6.09l-8,38Zm16-43.75h-7.53L531,449h7.54Z"/><path d="M544.94,483a9.15,9.15,0,0,0-.36,3.33c0,6.16,3.33,9.42,9,9.42,4.86,0,8.7-2.61,11.16-7h6.09c-2.25,7.83-9.57,12.61-18.26,12.61-8.84,0-14.42-6.38-14.42-13.91a34.93,34.93,0,0,1,6-18.4,20.12,20.12,0,0,1,16-7.83c7.82,0,13.83,5.44,13.83,12.39a51.28,51.28,0,0,1-1,8.48l-.14.94Zm22.75-7.32c0-5.43-3.26-8.91-8.41-8.91-5.86,0-11.22,4.64-13,11h21.3C567.62,476.9,567.69,476.39,567.69,475.66Z"/><path d="M621.87,500.22l-8.25-21.08-7.76,6.38-3.11,14.7h-6.09l11.23-52.81H614l-6.52,30.65L627,462.26h7.82l-16.08,13.11,10.14,24.85Z"/><path d="M646.14,501.31c-8.11,0-13.76-5.22-13.76-13.26,0-14.34,8.33-26.88,22-26.88,8.69,0,13.91,5.87,13.91,13.55C668.24,489.79,659.33,501.31,646.14,501.31Zm7.25-34.56c-8.55,0-14.64,9.35-14.64,19.85,0,5.8,3.26,9.13,8.41,9.13,8.62,0,14.7-8.84,14.7-19.63C661.86,470.23,658.75,466.75,653.39,466.75Zm-7.32-10.28,1.59-7.39h6.6l-1.6,7.39Zm11.74,0,1.59-7.39H666l-1.59,7.39Z"/><path d="M702.29,500.22H696.2l5.36-25.28a23.81,23.81,0,0,0,.44-2.68c0-3.33-2.68-5.87-6.31-5.87-6.52,0-11.66,4.93-13.33,12.9l-4.42,20.93h-6.08l8-38h5.51l-.95,4.71a19.09,19.09,0,0,1,14.06-5.8c6,0,9.85,3.55,9.85,9.06a11.69,11.69,0,0,1-.29,2.75Z"/><path d="M742.56,500.22h-6.08l5.36-25.28a23.81,23.81,0,0,0,.44-2.68c0-3.33-2.69-5.87-6.31-5.87-6.52,0-11.66,4.93-13.33,12.9l-4.42,20.93h-6.08l8-38h5.5l-.94,4.71a19.09,19.09,0,0,1,14.06-5.8c6,0,9.85,3.55,9.85,9.06a11.69,11.69,0,0,1-.29,2.75Z"/><path d="M765.74,500.22a22.16,22.16,0,0,1-4.7.51c-4,0-6.45-2.17-6.45-5.72a11.44,11.44,0,0,1,.22-2.25l5.5-25.65h-5.14l1-4.85h5.15l2.24-10.43h6.09l-2.25,10.43h6.45l-1,4.85H766.4L761,492.54a8.72,8.72,0,0,0-.14,1c0,1.16,1,2,2.61,2a13.77,13.77,0,0,0,3.47-.59Z"/><path d="M778.93,483a8.94,8.94,0,0,0-.36,3.33c0,6.16,3.33,9.42,9,9.42,4.86,0,8.7-2.61,11.16-7h6.09c-2.25,7.83-9.57,12.61-18.26,12.61-8.84,0-14.42-6.38-14.42-13.91a35,35,0,0,1,6-18.4,20.16,20.16,0,0,1,16-7.83c7.82,0,13.83,5.44,13.83,12.39a51.28,51.28,0,0,1-1,8.48l-.15.94Zm22.75-7.32c0-5.43-3.26-8.91-8.41-8.91-5.86,0-11.23,4.64-13,11h21.3C801.61,476.9,801.68,476.39,801.68,475.66Z"/><path d="M862.31,500.22h-5.87l1.24-5.79c-2.18,4.2-8.34,6.88-13.41,6.88-7.53,0-12.46-5.22-12.46-13.69,0-15.29,8.91-26.45,20.94-26.45,5.14,0,8,1.89,10.36,6.6l4.35-20.36h6.08Zm-10.14-33.47c-7.9,0-14,9.13-14,19.42,0,6.23,3.18,9.56,8.55,9.56,7.68,0,14-9,14-19.2C860.72,470.38,857.53,466.75,852.17,466.75Z"/><path d="M879.62,483a9.15,9.15,0,0,0-.36,3.33c0,6.16,3.34,9.42,9.06,9.42,4.85,0,8.69-2.61,11.16-7h6.08c-2.24,7.83-9.56,12.61-18.26,12.61s-14.41-6.38-14.41-13.91a35,35,0,0,1,6-18.4,20.14,20.14,0,0,1,16-7.83c7.83,0,13.84,5.44,13.84,12.39a51.28,51.28,0,0,1-1,8.48l-.15.94Zm22.75-7.32c0-5.43-3.26-8.91-8.4-8.91-5.87,0-11.23,4.64-13,11h21.3C902.3,476.9,902.37,476.39,902.37,475.66Z"/><path d="M936.57,467.55c-7.54,0-12.47,4.42-14.28,13l-4.2,19.7H912l8-38h5.5l-1.23,5.94c4.49-5.14,7.75-7,12-7a14.33,14.33,0,0,1,2.31.22l-1.3,6.16Z"/><path d="M456.35,555.93l14.92,31.22h-8l-12.17-27.24L440,569.11l-3.84,18h-6.81l11.23-52.81h6.81l-5.72,27,32.17-27h8.69Z"/><path d="M476.92,587.15l8-38H491l-8,38Zm16-43.75h-7.54l1.6-7.47h7.53Z"/><path d="M507.63,588.24c-8.11,0-13.76-5.22-13.76-13.26,0-14.34,8.33-26.88,22-26.88,8.69,0,13.91,5.87,13.91,13.55C529.73,576.72,520.82,588.24,507.63,588.24Zm7.25-34.56c-8.55,0-14.64,9.35-14.64,19.85,0,5.8,3.26,9.13,8.41,9.13,8.62,0,14.7-8.84,14.7-19.63C523.35,557.16,520.24,553.68,514.88,553.68Z"/><path d="M546.32,588.24c-8.41,0-13.48-3.48-13.48-9.27a14.94,14.94,0,0,1,.44-3.7h6.44c-.07.73-.14,1.38-.14,1.81,0,3.63,2.83,5.58,7.82,5.58,5.58,0,10.36-2.82,10.36-6.95,0-1.52-.5-3.12-5.07-4.28l-5.36-1.37c-7.46-1.89-10-4.06-10-8.48,0-7.68,6.67-13.48,16.74-13.48,7,0,11.88,3.48,11.88,8.55a11.66,11.66,0,0,1-.43,3.12h-6.09a12.71,12.71,0,0,0,.07-1.59c0-2.83-2.39-4.5-6.66-4.5-5.51,0-9.13,2.61-9.13,6.31,0,1.88,2.1,3.33,6.16,4.34l5.5,1.38c6.38,1.59,8.77,3.91,8.77,8.33C564.14,582.66,557.11,588.24,546.32,588.24Z"/><path d="M593.91,587.15l-8.26-21.08-7.75,6.38-3.11,14.7H568.7l11.23-52.81H586L579.5,565,599,549.19h7.83l-16.08,13.12,10.14,24.84Z"/><path d="M656.29,587.81c-3.48,0-5.73-.8-5.73-3.77l.08-1.09c-5.58,4.64-9.79,5.29-14.49,5.29-6.52,0-10.51-3.19-10.51-9a11.78,11.78,0,0,1,5.87-10.15c3.55-2.24,6.59-2.89,16.3-3.84,5.14-.43,6.81-1.3,7.32-4.27l.21-1.3a13,13,0,0,0,.15-1.38c0-2.68-3.33-4.64-7.68-4.64-5.36,0-8.48,2.1-9.93,6.74H631.8c1.38-8,7.53-12.32,17.6-12.32,7.61,0,12.61,3.26,12.61,8.19a9.16,9.16,0,0,1-.44,2.68l-4.41,20.8a2,2,0,0,0-.08.72c0,1.45.87,2.1,2.76,2.1a5,5,0,0,0,1.23-.14l-.94,4.7C657.23,587.66,657.3,587.81,656.29,587.81ZM643,570.56c-7.68,1.09-10.94,3.41-10.94,8,0,3.05,2.39,4.49,6.52,4.49,6.37,0,12.75-3.84,13.69-8.33l1.3-6.23C650.35,569.55,649.77,569.62,643,570.56Z"/><path d="M690.62,587.15l1-4.41a19.15,19.15,0,0,1-13.91,5.5c-6.24,0-10-3-10-7.9a12.9,12.9,0,0,1,.21-2.46L674,549.19h6.09l-5.58,26.3a9.78,9.78,0,0,0-.22,2c0,3.4,2.54,5.57,6.45,5.57,6.16,0,11.3-5.07,13-12.89l4.42-20.94h6.08l-8,38Z"/><path d="M719.45,588.24c-8.4,0-13.47-3.48-13.47-9.27a15.35,15.35,0,0,1,.43-3.7h6.45c-.07.73-.14,1.38-.14,1.81,0,3.63,2.82,5.58,7.82,5.58,5.58,0,10.36-2.82,10.36-6.95,0-1.52-.51-3.12-5.07-4.28l-5.36-1.37c-7.46-1.89-10-4.06-10-8.48,0-7.68,6.67-13.48,16.74-13.48,7,0,11.88,3.48,11.88,8.55a11.35,11.35,0,0,1-.44,3.12h-6.08a12.71,12.71,0,0,0,.07-1.59c0-2.83-2.39-4.5-6.67-4.5-5.5,0-9.12,2.61-9.12,6.31,0,1.88,2.1,3.33,6.15,4.34l5.51,1.38c6.38,1.59,8.77,3.91,8.77,8.33C737.28,582.66,730.25,588.24,719.45,588.24Z"/><path d="M755.68,588.24c-8.41,0-13.48-3.48-13.48-9.27a14.94,14.94,0,0,1,.44-3.7h6.44c-.07.73-.14,1.38-.14,1.81,0,3.63,2.82,5.58,7.82,5.58,5.58,0,10.36-2.82,10.36-6.95,0-1.52-.5-3.12-5.07-4.28l-5.36-1.37c-7.46-1.89-10-4.06-10-8.48,0-7.68,6.67-13.48,16.74-13.48,7,0,11.88,3.48,11.88,8.55a11.35,11.35,0,0,1-.44,3.12h-6.08a12.71,12.71,0,0,0,.07-1.59c0-2.83-2.39-4.5-6.66-4.5-5.51,0-9.13,2.61-9.13,6.31,0,1.88,2.1,3.33,6.16,4.34l5.5,1.38c6.38,1.59,8.77,3.91,8.77,8.33C773.5,582.66,766.47,588.24,755.68,588.24Z"/><path d="M786.75,569.91a9.15,9.15,0,0,0-.36,3.33c0,6.16,3.33,9.42,9.06,9.42,4.85,0,8.69-2.6,11.15-7h6.09c-2.25,7.82-9.56,12.6-18.26,12.6S780,581.87,780,574.33a34.92,34.92,0,0,1,6-18.4,20.17,20.17,0,0,1,16-7.83c7.82,0,13.84,5.44,13.84,12.39a50.42,50.42,0,0,1-1,8.48l-.14.94Zm22.75-7.32c0-5.43-3.26-8.91-8.4-8.91-5.87,0-11.23,4.64-13,11h21.3C809.43,563.83,809.5,563.32,809.5,562.59Z"/><path d="M849.64,587.15h-6.09l5.29-24.84a9.57,9.57,0,0,0,.43-2.83,5.82,5.82,0,0,0-6.16-6.16c-6.59,0-11.73,4.93-13.4,12.9l-4.42,20.93h-6.08l11.23-52.81h6.08l-4.13,19.56c4.57-4.27,8.12-5.8,13.55-5.8,6.09,0,9.78,3.41,9.78,9.13a11.5,11.5,0,0,1-.29,2.68Z"/><path d="M867.31,569.91a8.94,8.94,0,0,0-.36,3.33c0,6.16,3.33,9.42,9,9.42,4.86,0,8.7-2.6,11.16-7h6.09c-2.25,7.82-9.57,12.6-18.26,12.6-8.84,0-14.42-6.37-14.42-13.91a35,35,0,0,1,6-18.4,20.19,20.19,0,0,1,16-7.83c7.82,0,13.83,5.44,13.83,12.39a51.28,51.28,0,0,1-1,8.48l-.15.94Zm22.75-7.32c0-5.43-3.26-8.91-8.41-8.91-5.86,0-11.23,4.64-13,11h21.3C890,563.83,890.06,563.32,890.06,562.59Z"/><path d="M930.19,587.15h-6.08l5.36-25.28a25.64,25.64,0,0,0,.43-2.68c0-3.33-2.68-5.87-6.3-5.87-6.52,0-11.67,4.93-13.33,12.9l-4.42,20.93h-6.09l8-38h5.51l-.94,4.71a19.08,19.08,0,0,1,14-5.8c6,0,9.86,3.55,9.86,9.06a12.24,12.24,0,0,1-.29,2.75Z"/><path d="M969.67,560.35c-5.36,4.06-6.52,5.36-7.53,9l-.73,3.41h-6.52l.87-4c.94-4.42,2.18-5.65,9.86-11.81,5.57-4.42,7.6-7.53,7.6-11.66,0-3.7-3.19-6.23-7.75-6.23-6.38,0-9.85,3.48-11.45,11.37h-6.15c2.24-11.15,8.76-16.95,19.19-16.95,8.55,0,13.12,4.93,13.12,10.94C980.18,550,977.13,554.77,969.67,560.35Zm-11.3,26.8h-6.52l1.59-7.46H960Z"/></g></g></svg>