<?xml version="1.0" standalone="no"?>
<!DOCTYPE svg PUBLIC "-//W3C//DTD SVG 20010904//EN"
 "http://www.w3.org/TR/2001/REC-SVG-20010904/DTD/svg10.dtd">
<svg version="1.0" xmlns="http://www.w3.org/2000/svg"
 width="256.000000pt" height="256.000000pt" viewBox="0 0 256.000000 256.000000"
 preserveAspectRatio="xMidYMid meet">
<metadata>
Created by potrace 1.14, written by Peter Selinger 2001-2017
</metadata>
<g transform="translate(0.000000,256.000000) scale(0.100000,-0.100000)"
fill="#000000" stroke="none">
<path d="M687 2352 c-2 -4 -5 -315 -7 -692 -5 -1232 -4 -1357 9 -1388 17 -40
61 -63 122 -64 61 0 93 20 127 78 21 37 30 63 92 274 88 299 104 350 111 350
7 0 221 -328 304 -466 53 -88 148 -184 210 -214 76 -35 199 -33 278 5 122 59
179 170 184 361 l3 112 -38 3 c-20 2 -71 2 -112 -1 l-75 -5 -3 -75 c-4 -96
-17 -146 -47 -176 -52 -52 -118 -15 -195 109 -19 31 -90 140 -158 243 -68 102
-122 187 -120 188 146 64 314 193 401 307 109 144 146 333 90 460 -56 127
-202 180 -355 128 -242 -81 -379 -315 -587 -999 l-20 -65 5 635 c6 654 7 867
5 886 -1 12 -218 18 -224 6z m936 -697 c11 -7 25 -31 32 -51 50 -146 -116
-336 -372 -429 l-64 -24 7 22 c29 94 116 279 169 360 57 86 85 112 141 132 40
13 59 11 87 -10z"/>
</g>
</svg>
